<?xml version="1.0"?>
<svg xmlns:rdf="http://www.w3.org/1999/02/22-rdf-syntax-ns#" xmlns="http://www.w3.org/2000/svg" xmlns:cc="http://creativecommons.org/ns#" xmlns:dc="http://purl.org/dc/elements/1.1/" xmlns:svg="http://www.w3.org/2000/svg" id="svg2" viewBox="0 0 376 298" version="1.1">
  <g id="layer2" stroke-width="2" fill="none">
    <g id="g2838" stroke="#888">
      <path id="path3624" stroke-linejoin="bevel" style="color:#000000" d="m323.63 165.37-35.16-20.55-41.4-12.08-50.89-6.9l-50.889-2.5876-44.441 5.7327-50.436 12.38-26.738 18.113 0.86252-0.86252 16.388-52.614 9.3831 35.259 37.193-49.921 12.938 37.951 24.15-35.363 19.585 29.221 23.541-38.709 29.326 41.401 27.601-37.088 24.151 44.851 17.25-29.326 25.876 42.263 4.3126-40.538 27.396 59.361z"/>
      <path id="path3626" stroke-linejoin="bevel" style="color:#000000" d="m295.37 105.14-29.32-1.72-41.4-14.664-57.79-3.45-43.13 8.625-36.223-3.45-46.472 14.659 47.334-45.71-0.862 31.251 47.493-28.864l34.448 23.488 26.285-33.229 29.779 37.541 27.601-22.425 42.263 37.951z"/>
      <path id="path3628" stroke-linejoin="bevel" style="color:#000000" d="m264.32 103.42-12.93-37.09-57.79-14.663-58.6 10.708-10.84 31.556"/>
      <path id="path3630" stroke-linejoin="bevel" style="color:#000000" d="m88.369 58.568 47.438 3.4501 27.601-26.738 32.776 16.388 18.113-17.25 38.813 32.776 29.326 1.725 13.8 37.088"/>
      <path id="path3793" stroke-linejoin="bevel" style="color:#000000" d="m24.091 158.33-22.261 28.67"/>
      <path id="path3811" stroke-linejoin="bevel" style="color:#000000" d="m323.85 165.65 22.261 31.638-17.382-69.452-4.8791 37.813z"/>
      <path id="path3813" stroke-linejoin="bevel" style="color:#000000" d="m49.706 80.268 38.119-21.346 28.055-23.176 19.52 26.226"/>
      <path id="path3815" stroke-linejoin="bevel" style="color:#000000" d="m116.49 35.746h47.572l14.637-10.978 35.374 9.7583-48.791 0.60989"/>
      <path id="path3817" stroke-linejoin="bevel" style="color:#000000" d="m212.24 35.746 9.1484-3.6594"/>
      <path id="path3823" style="color:#000000" d="m293.36 104.05 35.37 23.18"/>
      <path id="path3837" style="color:#000000" d="m16.772 129.36 24.091-24.7"/>
      <path id="path3849" style="color:#000000" d="m16.772 129.06 7.6237 28.665"/>
    </g>
    <g id="g2852" stroke-linejoin="bevel" stroke="#000">
      <path id="path3614" style="color:#000000" d="m2.1174 188.81 18.113 36.226 65.551 31.913 90.564 13.8 94.877-11.213 60.376-31.913 14.663-30.188-14.663-37.951 0.32345 67.923-33.099-64.473-25.876 96.602-58.651-80.214-40.538 91.427-40.538-75.902-46.576 61.239-17.098-92.852-49.316 62.663 6.0376-89.702 44.241 27.296 63.574 32.218 79.999-16.819 86.467-15.957 31.051-3.6657-32.776-60.161 0.86251 62.964-64.689-74.392-20.7 91.427-69.001-66.198-75.902 50.026 15.525-85.389-59.514 58.651 24.151-56.064h34.501l81.077-37.088-18.975 69.864 89.702-24.151 62.101 7.7627-66.314-54.334 4.2124 46.571-70.726-45.713 66.414-1.725-53.476-15.525-12.938 16.388-49.164-6.9001-66.414 44.851-33.333 49.416 9.1828 6.6475-23.288 52.614z"/>
      <path id="path3616" style="color:#000000" d="m133.17 195.51 12.99-80.876-61.239-36.226 31.913-43.988 28.463-4.3126 32.776-5.1751 41.401 6.9001 12.938 10.35 47.438 20.7 18.975 34.501 30.188 30.188 2.8032 31.913"/>
      <path id="path3618" style="color:#000000" d="m329.01 126.71-49.16-63.83-59.77-31.05"/>
      <path id="path3620" style="color:#000000" d="m1.2549 187.95 15.525-56.93"/>
    </g>
  </g>
  <metadata>
    <rdf:RDF>
      <cc:Work>
        <dc:format>image/svg+xml</dc:format>
        <dc:type rdf:resource="http://purl.org/dc/dcmitype/StillImage"/>
        <cc:license rdf:resource="http://creativecommons.org/licenses/publicdomain/"/>
        <dc:publisher>
          <cc:Agent rdf:about="http://openclipart.org/">
            <dc:title>Openclipart</dc:title>
          </cc:Agent>
        </dc:publisher>
        <dc:title>geodesic_dome</dc:title>
        <dc:date>2011-11-01T20:23:19</dc:date>
        <dc:description>Geodesic Dome.</dc:description>
        <dc:source>http://openclipart.org/detail/165554/geodesic_dome-by-yoderj</dc:source>
        <dc:creator>
          <cc:Agent>
            <dc:title>yoderj</dc:title>
          </cc:Agent>
        </dc:creator>
        <dc:subject>
          <rdf:Bag>
            <rdf:li>Geodesic Dome</rdf:li>
            <rdf:li>Jungle Gym</rdf:li>
            <rdf:li>Playground</rdf:li>
            <rdf:li>clip art</rdf:li>
            <rdf:li>clipart</rdf:li>
          </rdf:Bag>
        </dc:subject>
      </cc:Work>
      <cc:License rdf:about="http://creativecommons.org/licenses/publicdomain/">
        <cc:permits rdf:resource="http://creativecommons.org/ns#Reproduction"/>
        <cc:permits rdf:resource="http://creativecommons.org/ns#Distribution"/>
        <cc:permits rdf:resource="http://creativecommons.org/ns#DerivativeWorks"/>
      </cc:License>
    </rdf:RDF>
  </metadata>
</svg>
